<svg xmlns="http://www.w3.org/2000/svg" viewBox="0 0 841.9 595.3"><g fill="#61DAFB"><circle cx="420.9" cy="296.5" r="45.7"/><path d="M520.4 78.1c-20.7-36-51.5-56.7-98.8-56.7-15.6 0-31.2 3.6-46.9 10.9-15.7 7.3-31.2 17.7-46 30.1-14.9 12.4-28.8 27.1-41.7 44.9-12.9 17.8-24.9 38.5-35.8 61.5-11 23-20.7 47.9-28.8 74.6s-13.8 52.8-15.9 78.7c-2.1 25.9-.5 50 5 71.6 5.5 21.6 14.6 41.2 27.1 58.9 12.6 17.7 27.7 32.4 44.3 43.9 16.6 11.5 34.8 19.9 53.8 25.2 19 5.3 38.7 7.6 58.6 7.6 19.9 0 39.6-2.3 58.6-7.6 19-5.3 37.2-13.7 53.8-25.2 16.6-11.5 31.7-26.2 44.3-43.9 12.5-17.7 21.6-37.3 27.1-58.9 5.5-21.6 7.1-45.7 5-71.6-2.1-25.9-8.7-52-15.9-78.7-7.2-26.7-16.9-51.6-28.8-74.6-11.9-23-24-43.7-36.9-61.5z"/></g></svg>